<?xml version="1.0" standalone="no"?><svg xmlns:xlink="http://www.w3.org/1999/xlink" xmlns="http://www.w3.org/2000/svg" viewBox="0 0 1000 600.0003896106426" preserveAspectRatio="xMaxYMax slice"><g transform="scale(1.948053213021567)"><rect x="0" y="0" width="513.3333333333334" height="308" fill="#ffffff"/><rect x="0" y="0" width="51.33" height="51.33" fill="#3b48ff"/><polygon points="51.33,0 51.33,51.33 0,51.33" fill="#f1f2ff"/><rect x="51.33" y="0" width="51.33" height="51.33" fill="#7079ff"/><path d="M 51.33 0 A 51.33 51.33 0 0 1  102.66 51.33 L 51.33 0 A 51.33 51.33 0 0 0 102.66 51.33" fill="#e7a6f6"/><rect x="102.67" y="0" width="51.33" height="51.33" fill="#838cff"/><path d="M 102.67 51.33 A 51.33 51.33 0 0 0 154 0 L 102.67 0" fill="#e396f4"/><rect x="154" y="0" width="51.333333333333336" height="51.333333333333336" fill="#ffffff"/><rect x="154" y="0" width="25.67" height="25.67" fill="#eec1f9"/><path d="M 154 0 A 25.67 25.67 0 0 0 179.67000000000002 25.67 L 179.67000000000002 0" fill="#757eff"/><rect x="179.67" y="0" width="25.67" height="25.67" fill="#f7e3fc"/><path d="M 179.67 25.67 A 25.67 25.67 0 0 0 205.33999999999997 0 L 179.67 0" fill="#717aff"/><rect x="154" y="25.67" width="25.67" height="25.67" fill="#3846ff"/><path d="M 154 51.34 A 25.67 25.67 0 0 1  179.67000000000002 25.67 L 179.67000000000002 51.34" fill="#c5c9ff"/><rect x="179.67" y="25.67" width="25.67" height="25.67" fill="#d153ed"/><path d="M 179.67 25.67 A 25.67 25.67 0 0 1 205.33999999999997 51.34 L 179.67 51.34" fill="#e08af3"/><rect x="205.33" y="0" width="51.33" height="51.33" fill="#e398f4"/><path d="M 205.33 51.33 A 51.33 51.33 0 0 1  256.66 0 L 256.66 51.33" fill="#fbf1fe"/><rect x="256.67" y="0" width="51.33" height="51.33" fill="#4855ff"/><polygon points="256.67,0 308,0 256.67,51.33" fill="#e6a1f5"/><rect x="308" y="0" width="51.33" height="51.33" fill="#3442ff"/><path d="M 308 51.33 A 51.33 51.33 0 0 1  359.33 0 L 359.33 51.33" fill="#e9eaff"/><rect x="359.33" y="0" width="51.33" height="51.33" fill="#de83f2"/><path d="M 359.33 51.33 A 51.33 51.33 0 0 0 410.65999999999997 0 L 359.33 0" fill="#3745ff"/><rect x="410.67" y="0" width="51.33" height="51.33" fill="#d155ee"/><rect x="410.67" y="0" width="51.33" height="51.33" fill="#b0b6ff"/><rect x="462" y="0" width="51.33" height="51.33" fill="#d76af0"/><rect x="462" y="0" width="51.33" height="51.33" fill="#4e5aff"/><rect x="0" y="51.33" width="51.33" height="51.33" fill="#fdfdff"/><rect x="0" y="51.33" width="51.33" height="51.33" fill="#cbcfff"/><rect x="51.333333333333336" y="51.333333333333336" width="51.333333333333336" height="51.333333333333336" fill="#ffffff"/><rect x="51.33" y="51.33" width="25.67" height="25.67" fill="#fafaff"/><path d="M 51.33 77 A 25.67 25.67 0 0 1  77 51.33 L 77 77" fill="#bdc1ff"/><rect x="77" y="51.33" width="25.67" height="25.67" fill="#e7a4f6"/><path d="M 77 51.33 A 25.67 25.67 0 0 1 102.67 77 L 77 77" fill="#e49af5"/><rect x="51.33" y="77" width="25.67" height="25.67" fill="#dadcff"/><path d="M 51.33 77 A 25.67 25.67 0 0 0 77 102.67 L 77 77" fill="#f5d9fb"/><rect x="77" y="77" width="25.67" height="25.67" fill="#f1cbfa"/><path d="M 77 102.67 A 25.67 25.67 0 0 0 102.67 77 L 77 77" fill="#dee0ff"/><rect x="102.67" y="51.33" width="51.33" height="51.33" fill="#fefcff"/><path d="M 102.67 51.33 A 51.33 51.33 0 0 0 154 102.66 L 154 51.33" fill="#f1cafa"/><rect x="154" y="51.333333333333336" width="51.333333333333336" height="51.333333333333336" fill="#ffffff"/><rect x="154" y="51.33" width="25.67" height="25.67" fill="#8d95ff"/><path d="M 154 51.33 A 25.67 25.67 0 0 0 179.67000000000002 77 L 179.67000000000002 51.33" fill="#e59ef5"/><rect x="179.67" y="51.33" width="25.67" height="25.67" fill="#d258ee"/><path d="M 179.67 77 A 25.67 25.67 0 0 0 205.33999999999997 51.33 L 179.67 51.33" fill="#e9aff7"/><rect x="154" y="77" width="25.67" height="25.67" fill="#6a74ff"/><path d="M 154 102.67 A 25.67 25.67 0 0 1  179.67000000000002 77 L 179.67000000000002 102.67" fill="#939bff"/><rect x="179.67" y="77" width="25.67" height="25.67" fill="#929aff"/><path d="M 179.67 77 A 25.67 25.67 0 0 1 205.33999999999997 102.67 L 179.67 102.67" fill="#f1ccfa"/><rect x="205.33" y="51.33" width="51.33" height="51.33" fill="#dddfff"/><rect x="205.33" y="51.33" width="51.33" height="51.33" fill="#d051ed"/><rect x="256.6666666666667" y="51.333333333333336" width="51.333333333333336" height="51.333333333333336" fill="#ffffff"/><rect x="256.67" y="51.33" width="25.67" height="25.67" fill="#4653ff"/><path d="M 256.67 77 A 25.67 25.67 0 0 0 282.34000000000003 51.33 L 256.67 51.33" fill="#e18ef3"/><rect x="282.33" y="51.33" width="25.67" height="25.67" fill="#e18ef3"/><path d="M 282.33 51.33 A 25.67 25.67 0 0 0 308 77 L 308 51.33" fill="#c1c5ff"/><rect x="256.67" y="77" width="25.67" height="25.67" fill="#f8e5fc"/><path d="M 256.67 77 A 25.67 25.67 0 0 1 282.34000000000003 102.67 L 256.67 102.67" fill="#f2cefa"/><rect x="282.33" y="77" width="25.67" height="25.67" fill="#fdf8fe"/><path d="M 282.33 102.67 A 25.67 25.67 0 0 1  308 77 L 308 102.67" fill="#b5baff"/><rect x="308" y="51.33" width="51.33" height="51.33" fill="#edbdf8"/><rect x="308" y="51.33" width="51.33" height="51.33" fill="#d258ee"/><rect x="359.33333333333337" y="51.333333333333336" width="51.333333333333336" height="51.333333333333336" fill="#ffffff"/><rect x="359.33" y="51.33" width="25.67" height="25.67" fill="#8d95ff"/><path d="M 359.33 51.33 A 25.67 25.67 0 0 0 385 77 L 385 51.33" fill="#e08df3"/><rect x="385" y="51.33" width="25.67" height="25.67" fill="#a2a8ff"/><path d="M 385 77 A 25.67 25.67 0 0 0 410.67 51.33 L 385 51.33" fill="#efc4f9"/><rect x="359.33" y="77" width="25.67" height="25.67" fill="#da75f1"/><path d="M 359.33 102.67 A 25.67 25.67 0 0 1  385 77 L 385 102.67" fill="#b9beff"/><rect x="385" y="77" width="25.67" height="25.67" fill="#c8cbff"/><path d="M 385 77 A 25.67 25.67 0 0 1 410.67 102.67 L 385 102.67" fill="#fdf7fe"/><rect x="410.67" y="51.33" width="51.33" height="51.33" fill="#de84f2"/><polygon points="410.67,51.33 462,51.33 410.67,102.66" fill="#7c85ff"/><rect x="462" y="51.33" width="51.33" height="51.33" fill="#5f6aff"/><rect x="462" y="51.33" width="51.33" height="51.33" fill="#e190f4"/><rect x="0" y="102.66666666666667" width="51.333333333333336" height="51.333333333333336" fill="#ffffff"/><rect x="0" y="102.67" width="25.67" height="25.67" fill="#bdc2ff"/><path d="M 0 102.67 A 25.67 25.67 0 0 1 25.67 128.34 L 0 128.34" fill="#babeff"/><rect x="25.67" y="102.67" width="25.67" height="25.67" fill="#a4aaff"/><path d="M 25.67 128.34 A 25.67 25.67 0 0 1  51.34 102.67 L 51.34 128.34" fill="#da74f1"/><rect x="0" y="128.33" width="25.67" height="25.67" fill="#f1cbfa"/><path d="M 0 154 A 25.67 25.67 0 0 0 25.67 128.33 L 0 128.33" fill="#d35bee"/><rect x="25.67" y="128.33" width="25.67" height="25.67" fill="#f1f2ff"/><path d="M 25.67 128.33 A 25.67 25.67 0 0 0 51.34 154 L 51.34 128.33" fill="#4753ff"/><rect x="51.33" y="102.67" width="51.33" height="51.33" fill="#c8ccff"/><rect x="51.33" y="102.67" width="51.33" height="51.33" fill="#d2d5ff"/><rect x="102.67" y="102.67" width="51.33" height="51.33" fill="#d35bee"/><path d="M 102.67 102.67 A 51.33 51.33 0 0 0 154 154 L 154 102.67" fill="#f9e8fd"/><rect x="154" y="102.67" width="51.33" height="51.33" fill="#404dff"/><path d="M 154 154 A 51.33 51.33 0 0 1  205.32999999999998 102.67 L 205.32999999999998 154" fill="#d45eee"/><rect x="205.33" y="102.67" width="51.33" height="51.33" fill="#404dff"/><rect x="205.33" y="102.67" width="51.33" height="51.33" fill="#dc7df2"/><rect x="256.6666666666667" y="102.66666666666667" width="51.333333333333336" height="51.333333333333336" fill="#ffffff"/><rect x="256.67" y="102.67" width="25.67" height="25.67" fill="#e8a9f6"/><circle cx="269.505" cy="115.505" r="12.835" fill="#d9dcff"/><rect x="282.33" y="102.67" width="25.67" height="25.67" fill="#e6a3f6"/><rect x="282.33" y="102.67" width="25.67" height="25.67" fill="#e7e8ff"/><rect x="256.67" y="128.33" width="25.67" height="25.67" fill="#d971f0"/><circle cx="269.505" cy="141.16500000000002" r="12.835" fill="#606bff"/><rect x="282.33" y="128.33" width="25.67" height="25.67" fill="#f1f2ff"/><rect x="282.33" y="128.33" width="25.67" height="25.67" fill="#adb3ff"/><rect x="308" y="102.67" width="51.33" height="51.33" fill="#edeeff"/><rect x="308" y="102.67" width="51.33" height="51.33" fill="#eab2f7"/><rect x="359.33333333333337" y="102.66666666666667" width="51.333333333333336" height="51.333333333333336" fill="#ffffff"/><rect x="359.33" y="102.67" width="25.67" height="25.67" fill="#f1caf9"/><path d="M 359.33 102.67 A 25.67 25.67 0 0 0 385 128.34 L 385 102.67" fill="#424fff"/><rect x="385" y="102.67" width="25.67" height="25.67" fill="#a9afff"/><path d="M 385 128.34 A 25.67 25.67 0 0 0 410.67 102.67 L 385 102.67" fill="#f7f8ff"/><rect x="359.33" y="128.33" width="25.67" height="25.67" fill="#e08cf3"/><path d="M 359.33 154 A 25.67 25.67 0 0 1  385 128.33 L 385 154" fill="#fafbff"/><rect x="385" y="128.33" width="25.67" height="25.67" fill="#5d68ff"/><path d="M 385 128.33 A 25.67 25.67 0 0 1 410.67 154 L 385 154" fill="#f8e5fc"/><rect x="410.67" y="102.67" width="51.33" height="51.33" fill="#d973f1"/><polygon points="410.67,102.67 462,102.67 462,154" fill="#e49bf5"/><rect x="462" y="102.67" width="51.33" height="51.33" fill="#5f6aff"/><polygon points="462,102.67 513.33,102.67 462,154" fill="#dd80f2"/><rect x="0" y="154" width="51.333333333333336" height="51.333333333333336" fill="#ffffff"/><rect x="0" y="154" width="25.67" height="25.67" fill="#d86ff0"/><polygon points="25.67,154 25.67,179.67000000000002 0,179.67000000000002" fill="#e6a3f6"/><rect x="25.67" y="154" width="25.67" height="25.67" fill="#606bff"/><polygon points="25.67,154 51.34,179.67000000000002 25.67,179.67000000000002" fill="#838cff"/><rect x="0" y="179.67" width="25.67" height="25.67" fill="#d561ef"/><polygon points="0,179.67 25.67,179.67 0,205.33999999999997" fill="#fafaff"/><rect x="25.67" y="179.67" width="25.67" height="25.67" fill="#939bff"/><polygon points="25.67,179.67 51.34,179.67 51.34,205.33999999999997" fill="#dc7ef2"/><rect x="51.33" y="154" width="51.33" height="51.33" fill="#e7a6f6"/><polygon points="51.33,154 102.66,205.32999999999998 51.33,205.32999999999998" fill="#ebb4f7"/><rect x="102.67" y="154" width="51.33" height="51.33" fill="#ffffff"/><path d="M 102.67 205.32999999999998 A 51.33 51.33 0 0 1  154 154 L 102.67 205.32999999999998 A 51.33 51.33 0 0 0 154 154" fill="#fafaff"/><rect x="154" y="154" width="51.33" height="51.33" fill="#dd7ff2"/><rect x="154" y="154" width="51.33" height="51.33" fill="#d154ed"/><rect x="205.33333333333334" y="154" width="51.333333333333336" height="51.333333333333336" fill="#ffffff"/><rect x="205.33" y="154" width="25.67" height="25.67" fill="#e191f4"/><polygon points="231,154 231,179.67000000000002 205.33,179.67000000000002" fill="#4753ff"/><rect x="231" y="154" width="25.67" height="25.67" fill="#ecb9f8"/><polygon points="231,154 256.67,154 231,179.67000000000002" fill="#f2cefa"/><rect x="205.33" y="179.67" width="25.67" height="25.67" fill="#e0e3ff"/><polygon points="205.33,179.67 231,179.67 231,205.33999999999997" fill="#e7a4f6"/><rect x="231" y="179.67" width="25.67" height="25.67" fill="#5c67ff"/><polygon points="231,179.67 256.67,205.33999999999997 231,205.33999999999997" fill="#828bff"/><rect x="256.6666666666667" y="154" width="51.333333333333336" height="51.333333333333336" fill="#ffffff"/><rect x="256.67" y="154" width="25.67" height="25.67" fill="#e3e5ff"/><polygon points="282.34000000000003,154 282.34000000000003,179.67000000000002 256.67,179.67000000000002" fill="#db78f1"/><rect x="282.33" y="154" width="25.67" height="25.67" fill="#8d95ff"/><polygon points="282.33,154 308,179.67000000000002 282.33,179.67000000000002" fill="#e191f4"/><rect x="256.67" y="179.67" width="25.67" height="25.67" fill="#969eff"/><polygon points="256.67,179.67 282.34000000000003,179.67 282.34000000000003,205.33999999999997" fill="#d971f0"/><rect x="282.33" y="179.67" width="25.67" height="25.67" fill="#d668ef"/><polygon points="282.33,179.67 308,179.67 282.33,205.33999999999997" fill="#e398f4"/><rect x="308" y="154" width="51.333333333333336" height="51.333333333333336" fill="#ffffff"/><rect x="308" y="154" width="25.67" height="25.67" fill="#bfc3ff"/><path d="M 308 154 A 25.67 25.67 0 0 0 333.67 179.67000000000002 L 333.67 154" fill="#df88f3"/><rect x="333.67" y="154" width="25.67" height="25.67" fill="#f5dafb"/><path d="M 333.67 179.67000000000002 A 25.67 25.67 0 0 0 359.34000000000003 154 L 333.67 154" fill="#fbf0fd"/><rect x="308" y="179.67" width="25.67" height="25.67" fill="#3d4bff"/><path d="M 308 205.33999999999997 A 25.67 25.67 0 0 1  333.67 179.67 L 333.67 205.33999999999997" fill="#f5dafb"/><rect x="333.67" y="179.67" width="25.67" height="25.67" fill="#616cff"/><path d="M 333.67 179.67 A 25.67 25.67 0 0 1 359.34000000000003 205.33999999999997 L 333.67 205.33999999999997" fill="#b5baff"/><rect x="359.33333333333337" y="154" width="51.333333333333336" height="51.333333333333336" fill="#ffffff"/><rect x="359.33" y="154" width="25.67" height="25.67" fill="#414eff"/><path d="M 359.33 179.67000000000002 A 25.67 25.67 0 0 1  385 154 L 385 179.67000000000002" fill="#fcf3fe"/><rect x="385" y="154" width="25.67" height="25.67" fill="#edbcf8"/><path d="M 385 154 A 25.67 25.67 0 0 1 410.67 179.67000000000002 L 385 179.67000000000002" fill="#ebb3f7"/><rect x="359.33" y="179.67" width="25.67" height="25.67" fill="#6e78ff"/><path d="M 359.33 179.67 A 25.67 25.67 0 0 0 385 205.33999999999997 L 385 179.67" fill="#3e4bff"/><rect x="385" y="179.67" width="25.67" height="25.67" fill="#d0d3ff"/><path d="M 385 205.33999999999997 A 25.67 25.67 0 0 0 410.67 179.67 L 385 179.67" fill="#6872ff"/><rect x="410.67" y="154" width="51.33" height="51.33" fill="#e397f4"/><polygon points="410.67,154 462,205.32999999999998 410.67,205.32999999999998" fill="#fdfdff"/><rect x="462" y="154" width="51.333333333333336" height="51.333333333333336" fill="#ffffff"/><rect x="462" y="154" width="25.67" height="25.67" fill="#a9afff"/><polygon points="487.67,154 487.67,179.67000000000002 462,179.67000000000002" fill="#eeefff"/><rect x="487.67" y="154" width="25.67" height="25.67" fill="#fbfbff"/><polygon points="487.67,154 513.34,179.67000000000002 487.67,179.67000000000002" fill="#df88f3"/><rect x="462" y="179.67" width="25.67" height="25.67" fill="#d86ff0"/><polygon points="462,179.67 487.67,179.67 462,205.33999999999997" fill="#515dff"/><rect x="487.67" y="179.67" width="25.67" height="25.67" fill="#3b48ff"/><polygon points="487.67,179.67 513.34,179.67 513.34,205.33999999999997" fill="#efc3f9"/><rect x="0" y="205.33" width="51.33" height="51.33" fill="#3846ff"/><rect x="0" y="205.33" width="51.33" height="51.33" fill="#f7e0fc"/><rect x="51.33" y="205.33" width="51.33" height="51.33" fill="#5f6aff"/><rect x="51.33" y="205.33" width="51.33" height="51.33" fill="#faebfd"/><rect x="102.66666666666667" y="205.33333333333334" width="51.333333333333336" height="51.333333333333336" fill="#ffffff"/><rect x="102.67" y="205.33" width="25.67" height="25.67" fill="#eaebff"/><circle cx="115.505" cy="218.16500000000002" r="12.835" fill="#f7f8ff"/><rect x="128.33" y="205.33" width="25.67" height="25.67" fill="#e59ff5"/><rect x="128.33" y="205.33" width="25.67" height="25.67" fill="#c7cbff"/><rect x="102.67" y="231" width="25.67" height="25.67" fill="#f0c7f9"/><circle cx="115.505" cy="243.835" r="12.835" fill="#f0c8f9"/><rect x="128.33" y="231" width="25.67" height="25.67" fill="#e6e8ff"/><rect x="128.33" y="231" width="25.67" height="25.67" fill="#bdc2ff"/><rect x="154" y="205.33" width="51.33" height="51.33" fill="#7881ff"/><polygon points="205.32999999999998,205.33 205.32999999999998,256.66 154,256.66" fill="#e08bf3"/><rect x="205.33333333333334" y="205.33333333333334" width="51.333333333333336" height="51.333333333333336" fill="#ffffff"/><rect x="205.33" y="205.33" width="25.67" height="25.67" fill="#626dff"/><circle cx="218.16500000000002" cy="218.16500000000002" r="12.835" fill="#9199ff"/><rect x="231" y="205.33" width="25.67" height="25.67" fill="#7e87ff"/><rect x="231" y="205.33" width="25.67" height="25.67" fill="#b4baff"/><rect x="205.33" y="231" width="25.67" height="25.67" fill="#959cff"/><circle cx="218.16500000000002" cy="243.835" r="12.835" fill="#d769f0"/><rect x="231" y="231" width="25.67" height="25.67" fill="#5965ff"/><rect x="231" y="231" width="25.67" height="25.67" fill="#dfe1ff"/><rect x="256.67" y="205.33" width="51.33" height="51.33" fill="#515dff"/><polygon points="308,205.33 308,256.66 256.67,256.66" fill="#a7adff"/><rect x="308" y="205.33333333333334" width="51.333333333333336" height="51.333333333333336" fill="#ffffff"/><rect x="308" y="205.33" width="25.67" height="25.67" fill="#424fff"/><path d="M 308 231 A 25.67 25.67 0 0 0 333.67 205.33 L 308 205.33" fill="#f8e4fc"/><rect x="333.67" y="205.33" width="25.67" height="25.67" fill="#e6a3f6"/><path d="M 333.67 205.33 A 25.67 25.67 0 0 0 359.34000000000003 231 L 359.34000000000003 205.33" fill="#e8aaf6"/><rect x="308" y="231" width="25.67" height="25.67" fill="#adb2ff"/><path d="M 308 231 A 25.67 25.67 0 0 1 333.67 256.67 L 308 256.67" fill="#a5abff"/><rect x="333.67" y="231" width="25.67" height="25.67" fill="#f3d3fa"/><path d="M 333.67 256.67 A 25.67 25.67 0 0 1  359.34000000000003 231 L 359.34000000000003 256.67" fill="#aaafff"/><rect x="359.33333333333337" y="205.33333333333334" width="51.333333333333336" height="51.333333333333336" fill="#ffffff"/><rect x="359.33" y="205.33" width="25.67" height="25.67" fill="#e397f4"/><path d="M 359.33 231 A 25.67 25.67 0 0 0 385 205.33 L 359.33 205.33" fill="#949bff"/><rect x="385" y="205.33" width="25.67" height="25.67" fill="#8c94ff"/><path d="M 385 205.33 A 25.67 25.67 0 0 0 410.67 231 L 410.67 205.33" fill="#f0c6f9"/><rect x="359.33" y="231" width="25.67" height="25.67" fill="#e7a6f6"/><path d="M 359.33 231 A 25.67 25.67 0 0 1 385 256.67 L 359.33 256.67" fill="#f2f3ff"/><rect x="385" y="231" width="25.67" height="25.67" fill="#fefafe"/><path d="M 385 256.67 A 25.67 25.67 0 0 1  410.67 231 L 410.67 256.67" fill="#f6ddfb"/><rect x="410.6666666666667" y="205.33333333333334" width="51.333333333333336" height="51.333333333333336" fill="#ffffff"/><rect x="410.67" y="205.33" width="25.67" height="25.67" fill="#f0c9f9"/><path d="M 410.67 231 A 25.67 25.67 0 0 1  436.34000000000003 205.33 L 436.34000000000003 231" fill="#f8e6fc"/><rect x="436.33" y="205.33" width="25.67" height="25.67" fill="#9ba2ff"/><path d="M 436.33 205.33 A 25.67 25.67 0 0 1 462 231 L 436.33 231" fill="#efc3f9"/><rect x="410.67" y="231" width="25.67" height="25.67" fill="#da74f1"/><path d="M 410.67 231 A 25.67 25.67 0 0 0 436.34000000000003 256.67 L 436.34000000000003 231" fill="#5763ff"/><rect x="436.33" y="231" width="25.67" height="25.67" fill="#878fff"/><path d="M 436.33 256.67 A 25.67 25.67 0 0 0 462 231 L 436.33 231" fill="#d050ed"/><rect x="462" y="205.33" width="51.33" height="51.33" fill="#707aff"/><polygon points="462,205.33 513.33,205.33 462,256.66" fill="#4d59ff"/><rect x="0" y="256.67" width="51.33" height="51.33" fill="#a2a8ff"/><path d="M 0 308 A 51.33 51.33 0 0 1  51.33 256.67 L 0 308 A 51.33 51.33 0 0 0 51.33 256.67" fill="#fbf1fe"/><rect x="51.333333333333336" y="256.6666666666667" width="51.333333333333336" height="51.333333333333336" fill="#ffffff"/><rect x="51.33" y="256.67" width="25.67" height="25.67" fill="#8d95ff"/><polygon points="77,256.67 77,282.34000000000003 51.33,282.34000000000003" fill="#9199ff"/><rect x="77" y="256.67" width="25.67" height="25.67" fill="#fcf4fe"/><polygon points="77,256.67 102.67,256.67 77,282.34000000000003" fill="#f3d1fa"/><rect x="51.33" y="282.33" width="25.67" height="25.67" fill="#e499f4"/><polygon points="51.33,282.33 77,282.33 77,308" fill="#9fa6ff"/><rect x="77" y="282.33" width="25.67" height="25.67" fill="#3f4cff"/><polygon points="77,282.33 102.67,308 77,308" fill="#bcc0ff"/><rect x="102.67" y="256.67" width="51.33" height="51.33" fill="#e6a1f5"/><polygon points="102.67,256.67 154,308 102.67,308" fill="#e8aaf6"/><rect x="154" y="256.6666666666667" width="51.333333333333336" height="51.333333333333336" fill="#ffffff"/><rect x="154" y="256.67" width="25.67" height="25.67" fill="#d154ed"/><path d="M 154 282.34000000000003 A 25.67 25.67 0 0 0 179.67000000000002 256.67 L 154 256.67" fill="#b4b9ff"/><rect x="179.67" y="256.67" width="25.67" height="25.67" fill="#eceeff"/><path d="M 179.67 256.67 A 25.67 25.67 0 0 0 205.33999999999997 282.34000000000003 L 205.33999999999997 256.67" fill="#fafbff"/><rect x="154" y="282.33" width="25.67" height="25.67" fill="#9098ff"/><path d="M 154 282.33 A 25.67 25.67 0 0 1 179.67000000000002 308 L 154 308" fill="#a5abff"/><rect x="179.67" y="282.33" width="25.67" height="25.67" fill="#e398f4"/><path d="M 179.67 308 A 25.67 25.67 0 0 1  205.33999999999997 282.33 L 205.33999999999997 308" fill="#d7d9ff"/><rect x="205.33333333333334" y="256.6666666666667" width="51.333333333333336" height="51.333333333333336" fill="#ffffff"/><rect x="205.33" y="256.67" width="25.67" height="25.67" fill="#c5c9ff"/><path d="M 205.33 256.67 A 25.67 25.67 0 0 1 231 282.34000000000003 L 205.33 282.34000000000003" fill="#3d4aff"/><rect x="231" y="256.67" width="25.67" height="25.67" fill="#f4f5ff"/><path d="M 231 282.34000000000003 A 25.67 25.67 0 0 1  256.67 256.67 L 256.67 282.34000000000003" fill="#929aff"/><rect x="205.33" y="282.33" width="25.67" height="25.67" fill="#d359ee"/><path d="M 205.33 308 A 25.67 25.67 0 0 0 231 282.33 L 205.33 282.33" fill="#606bff"/><rect x="231" y="282.33" width="25.67" height="25.67" fill="#f1cafa"/><path d="M 231 282.33 A 25.67 25.67 0 0 0 256.67 308 L 256.67 282.33" fill="#e9aef7"/><rect x="256.6666666666667" y="256.6666666666667" width="51.333333333333336" height="51.333333333333336" fill="#ffffff"/><rect x="256.67" y="256.67" width="25.67" height="25.67" fill="#a1a7ff"/><polygon points="282.34000000000003,256.67 282.34000000000003,282.34000000000003 256.67,282.34000000000003" fill="#9fa6ff"/><rect x="282.33" y="256.67" width="25.67" height="25.67" fill="#d35bee"/><polygon points="282.33,256.67 308,282.34000000000003 282.33,282.34000000000003" fill="#faedfd"/><rect x="256.67" y="282.33" width="25.67" height="25.67" fill="#5e69ff"/><polygon points="256.67,282.33 282.34000000000003,282.33 256.67,308" fill="#d259ee"/><rect x="282.33" y="282.33" width="25.67" height="25.67" fill="#d256ee"/><polygon points="282.33,282.33 308,282.33 308,308" fill="#f0f1ff"/><rect x="308" y="256.67" width="51.33" height="51.33" fill="#fdfdff"/><polygon points="308,256.67 359.33,256.67 359.33,308" fill="#b8bdff"/><rect x="359.33333333333337" y="256.6666666666667" width="51.333333333333336" height="51.333333333333336" fill="#ffffff"/><rect x="359.33" y="256.67" width="25.67" height="25.67" fill="#d460ef"/><path d="M 359.33 282.34000000000003 A 25.67 25.67 0 0 1  385 256.67 L 385 282.34000000000003" fill="#fefbff"/><rect x="385" y="256.67" width="25.67" height="25.67" fill="#4350ff"/><path d="M 385 256.67 A 25.67 25.67 0 0 1 410.67 282.34000000000003 L 385 282.34000000000003" fill="#3442ff"/><rect x="359.33" y="282.33" width="25.67" height="25.67" fill="#6a74ff"/><path d="M 359.33 282.33 A 25.67 25.67 0 0 0 385 308 L 385 282.33" fill="#ced2ff"/><rect x="385" y="282.33" width="25.67" height="25.67" fill="#db79f1"/><path d="M 385 308 A 25.67 25.67 0 0 0 410.67 282.33 L 385 282.33" fill="#e294f4"/><rect x="410.67" y="256.67" width="51.33" height="51.33" fill="#da74f1"/><path d="M 410.67 256.67 A 51.33 51.33 0 0 1 462 308 L 410.67 308" fill="#eaecff"/><rect x="462" y="256.67" width="51.33" height="51.33" fill="#edbbf8"/><polygon points="513.33,256.67 513.33,308 462,308" fill="#a4abff"/></g></svg>